<svg width="457" height="152" viewBox="0 0 457 152" fill="none" xmlns="http://www.w3.org/2000/svg">
<path d="M4.03125 52V0.8125H17.4961C23.0039 0.8125 27.1641 1.9375 29.9766 4.1875C32.8125 6.41406 34.2305 9.66016 34.2305 13.9258C34.2305 17.0195 33.4453 19.5859 31.875 21.625C30.3047 23.6641 28.0898 24.9648 25.2305 25.5273C28.4648 25.9492 31.1602 27.3555 33.3164 29.7461C35.4727 32.1133 36.5508 34.832 36.5508 37.9023C36.5508 42.2617 35.1328 45.707 32.2969 48.2383C29.4844 50.7461 25.5586 52 20.5195 52H4.03125ZM5.92969 26.7227V50.1016H20.7305C25.0664 50.1016 28.4648 49.0352 30.9258 46.9023C33.4102 44.7461 34.6523 41.7695 34.6523 37.9727C34.6523 34.7383 33.457 32.0781 31.0664 29.9922C28.6758 27.8828 25.4766 26.793 21.4688 26.7227H5.92969ZM5.92969 24.8242H18.1992C22.8633 24.8242 26.3789 23.9336 28.7461 22.1523C31.1133 20.3477 32.2969 17.5586 32.2969 13.7852C32.2969 6.51953 27.5039 2.82812 17.918 2.71094H5.92969V24.8242ZM59.4023 50.8047C62.8477 50.8047 65.6836 49.8906 67.9102 48.0625C70.1602 46.2344 71.3906 43.7031 71.6016 40.4688H73.5C73.3125 44.1484 71.8945 47.1133 69.2461 49.3633C66.5977 51.5898 63.3164 52.7031 59.4023 52.7031C54.6445 52.7031 50.8594 50.9805 48.0469 47.5352C45.2578 44.0898 43.8633 39.4141 43.8633 33.5078V32.2422C43.8633 26.4766 45.2578 21.8711 48.0469 18.4258C50.8594 14.9805 54.6211 13.2578 59.332 13.2578C63.3633 13.2578 66.6914 14.4648 69.3164 16.8789C71.9414 19.293 73.3359 22.5039 73.5 26.5117H71.6016C71.4375 23.0898 70.2305 20.3477 67.9805 18.2852C65.7539 16.1992 62.8711 15.1562 59.332 15.1562C55.0898 15.1562 51.7617 16.6914 49.3477 19.7617C46.957 22.8086 45.7617 27.0508 45.7617 32.4883V33.7188C45.7617 39.0391 46.9688 43.2227 49.3828 46.2695C51.8203 49.293 55.1602 50.8047 59.4023 50.8047ZM109.5 13.9609V52H107.602V36.1797H93.6797L84.1523 52H81.9023L91.5 36.0039C88.7578 35.5586 86.5898 34.3633 84.9961 32.418C83.4023 30.4727 82.6055 28.0234 82.6055 25.0703C82.6055 21.7656 83.7188 19.1055 85.9453 17.0898C88.1953 15.0742 91.2422 14.0312 95.0859 13.9609H109.5ZM84.5039 25.1406C84.5039 27.8828 85.3242 30.0742 86.9648 31.7148C88.6289 33.3555 90.8672 34.1992 93.6797 34.2461H107.602V15.8945H95.4375C92.0156 15.8945 89.332 16.7148 87.3867 18.3555C85.4648 19.9961 84.5039 22.2578 84.5039 25.1406ZM166.77 33.4375H161.285V52H159.387V33.4375H153.938L136.43 52H133.934L151.898 32.5938L136.148 13.9609H138.504L153.621 31.5391H159.387V13.9609H161.285V31.5391H167.156L182.238 13.9609H184.664L168.809 32.5938L186.844 52H184.348L166.77 33.4375ZM219.785 13.9609H221.719V52H219.785V17.3359L196.266 52H194.367V13.9609H196.266V48.625L219.785 13.9609ZM257.508 23.6992C257.508 21.0039 256.512 18.9062 254.52 17.4062C252.551 15.9062 249.668 15.1562 245.871 15.1562C242.59 15.1562 239.812 15.9883 237.539 17.6523C235.289 19.3164 234.164 21.4023 234.164 23.9102H232.23C232.23 20.8398 233.555 18.2969 236.203 16.2812C238.875 14.2656 242.098 13.2578 245.871 13.2578C250.184 13.2578 253.523 14.1953 255.891 16.0703C258.258 17.9219 259.441 20.5 259.441 23.8047C259.441 25.7969 258.797 27.5664 257.508 29.1133C256.219 30.6602 254.402 31.7969 252.059 32.5234C257.426 33.7422 260.109 36.8359 260.109 41.8047C260.109 45.1328 258.82 47.7812 256.242 49.75C253.688 51.6953 250.242 52.668 245.906 52.668C243.375 52.668 240.996 52.1992 238.77 51.2617C236.543 50.3242 234.785 49.0117 233.496 47.3242C232.23 45.6367 231.598 43.668 231.598 41.418H233.531C233.531 44.043 234.703 46.2578 237.047 48.0625C239.391 49.8438 242.344 50.7344 245.906 50.7344C249.938 50.7344 252.984 49.9492 255.047 48.3789C257.133 46.7852 258.176 44.6289 258.176 41.9102C258.176 38.9805 257.156 36.8594 255.117 35.5469C253.102 34.2344 250.066 33.5664 246.012 33.543H240.703V31.6094H246.398C253.805 31.4922 257.508 28.8555 257.508 23.6992ZM297.586 52H295.652V33.4023H272.133V52H270.234V13.9609H272.133V31.5039H295.652V13.9609H297.586V52ZM311.895 28.4453H324.375C328.43 28.5156 331.652 29.6172 334.043 31.75C336.434 33.8594 337.629 36.6836 337.629 40.2227C337.629 43.7383 336.445 46.5625 334.078 48.6953C331.711 50.8281 328.477 51.9297 324.375 52H309.996V13.9609H311.895V28.4453ZM311.895 30.3438V50.1016H324.023C327.68 50.1016 330.539 49.2109 332.602 47.4297C334.688 45.625 335.73 43.1992 335.73 40.1523C335.73 37.2461 334.711 34.9023 332.672 33.1211C330.656 31.3164 327.867 30.3906 324.305 30.3438H311.895ZM377.496 29.5352H360.973V27.6367H377.496V29.5352ZM33.9844 136H23.7891V106.188H11.0625V136H0.902344V97.9609H33.9844V136ZM55.957 121.621L62.9883 97.9609H73.8867L58.5938 141.906L57.75 143.91C55.4766 148.879 51.7266 151.363 46.5 151.363C45.0234 151.363 43.5234 151.141 42 150.695V142.996L43.5469 143.031C45.4688 143.031 46.8984 142.738 47.8359 142.152C48.7969 141.566 49.5469 140.594 50.0859 139.234L51.2812 136.105L37.957 97.9609H48.8906L55.957 121.621ZM109.465 106.117H97.2656V136H87.0703V106.117H75.082V97.9609H109.465V106.117ZM129.855 136.703C124.277 136.703 119.73 134.992 116.215 131.57C112.723 128.148 110.977 123.59 110.977 117.895V116.91C110.977 113.09 111.715 109.68 113.191 106.68C114.668 103.656 116.754 101.336 119.449 99.7188C122.168 98.0781 125.262 97.2578 128.73 97.2578C133.934 97.2578 138.023 98.8984 141 102.18C144 105.461 145.5 110.113 145.5 116.137V120.285H121.277C121.605 122.77 122.59 124.762 124.23 126.262C125.895 127.762 127.992 128.512 130.523 128.512C134.438 128.512 137.496 127.094 139.699 124.258L144.691 129.848C143.168 132.004 141.105 133.691 138.504 134.91C135.902 136.105 133.02 136.703 129.855 136.703ZM128.695 105.484C126.68 105.484 125.039 106.164 123.773 107.523C122.531 108.883 121.734 110.828 121.383 113.359H135.516V112.551C135.469 110.301 134.859 108.566 133.688 107.348C132.516 106.105 130.852 105.484 128.695 105.484ZM161.461 97.9609V127.809H171.902V97.9609H182.098V127.809H192.539V97.9609H202.699V136H151.301V97.9609H161.461ZM228.363 136.703C222.785 136.703 218.238 134.992 214.723 131.57C211.23 128.148 209.484 123.59 209.484 117.895V116.91C209.484 113.09 210.223 109.68 211.699 106.68C213.176 103.656 215.262 101.336 217.957 99.7188C220.676 98.0781 223.77 97.2578 227.238 97.2578C232.441 97.2578 236.531 98.8984 239.508 102.18C242.508 105.461 244.008 110.113 244.008 116.137V120.285H219.785C220.113 122.77 221.098 124.762 222.738 126.262C224.402 127.762 226.5 128.512 229.031 128.512C232.945 128.512 236.004 127.094 238.207 124.258L243.199 129.848C241.676 132.004 239.613 133.691 237.012 134.91C234.41 136.105 231.527 136.703 228.363 136.703ZM227.203 105.484C225.188 105.484 223.547 106.164 222.281 107.523C221.039 108.883 220.242 110.828 219.891 113.359H234.023V112.551C233.977 110.301 233.367 108.566 232.195 107.348C231.023 106.105 229.359 105.484 227.203 105.484ZM265.629 128.512C267.504 128.512 269.027 127.996 270.199 126.965C271.371 125.934 271.98 124.562 272.027 122.852H281.555C281.531 125.43 280.828 127.797 279.445 129.953C278.062 132.086 276.164 133.75 273.75 134.945C271.359 136.117 268.711 136.703 265.805 136.703C260.367 136.703 256.078 134.98 252.938 131.535C249.797 128.066 248.227 123.285 248.227 117.191V116.523C248.227 110.664 249.785 105.988 252.902 102.496C256.02 99.0039 260.297 97.2578 265.734 97.2578C270.492 97.2578 274.301 98.6172 277.16 101.336C280.043 104.031 281.508 107.629 281.555 112.129H272.027C271.98 110.16 271.371 108.566 270.199 107.348C269.027 106.105 267.48 105.484 265.559 105.484C263.191 105.484 261.398 106.352 260.18 108.086C258.984 109.797 258.387 112.586 258.387 116.453V117.508C258.387 121.422 258.984 124.234 260.18 125.945C261.375 127.656 263.191 128.512 265.629 128.512ZM318.926 106.117H306.727V136H296.531V106.117H284.543V97.9609H318.926V106.117ZM324.727 136V97.9609H340.617C345.797 97.9609 349.77 98.875 352.535 100.703C355.301 102.531 356.684 105.156 356.684 108.578C356.684 110.336 356.098 111.918 354.926 113.324C353.777 114.707 352.09 115.773 349.863 116.523C352.582 117.039 354.715 118.059 356.262 119.582C357.832 121.082 358.617 122.934 358.617 125.137C358.617 128.676 357.281 131.371 354.609 133.223C351.961 135.074 348.105 136 343.043 136H324.727ZM334.887 120.215V127.879H343.078C346.664 127.879 348.457 126.625 348.457 124.117C348.457 121.562 346.746 120.262 343.324 120.215H334.887ZM334.887 113.395H341.18C344.742 113.348 346.523 112.199 346.523 109.949C346.523 108.566 346.031 107.582 345.047 106.996C344.086 106.41 342.609 106.117 340.617 106.117H334.887V113.395ZM387.762 97.9609H397.922V136H387.762V112.516L375.035 136H364.84V97.9609H375.035V121.41L387.762 97.9609ZM423.199 136.703C417.621 136.703 413.074 134.992 409.559 131.57C406.066 128.148 404.32 123.59 404.32 117.895V116.91C404.32 113.09 405.059 109.68 406.535 106.68C408.012 103.656 410.098 101.336 412.793 99.7188C415.512 98.0781 418.605 97.2578 422.074 97.2578C427.277 97.2578 431.367 98.8984 434.344 102.18C437.344 105.461 438.844 110.113 438.844 116.137V120.285H414.621C414.949 122.77 415.934 124.762 417.574 126.262C419.238 127.762 421.336 128.512 423.867 128.512C427.781 128.512 430.84 127.094 433.043 124.258L438.035 129.848C436.512 132.004 434.449 133.691 431.848 134.91C429.246 136.105 426.363 136.703 423.199 136.703ZM422.039 105.484C420.023 105.484 418.383 106.164 417.117 107.523C415.875 108.883 415.078 110.828 414.727 113.359H428.859V112.551C428.812 110.301 428.203 108.566 427.031 107.348C425.859 106.105 424.195 105.484 422.039 105.484ZM454.98 120.285H446.543L445.348 84.8125H456.176L454.98 120.285ZM450.762 125.84C452.473 125.84 453.844 126.344 454.875 127.352C455.93 128.359 456.457 129.648 456.457 131.219C456.457 132.766 455.93 134.043 454.875 135.051C453.844 136.059 452.473 136.562 450.762 136.562C449.074 136.562 447.703 136.059 446.648 135.051C445.617 134.043 445.102 132.766 445.102 131.219C445.102 129.672 445.617 128.395 446.648 127.387C447.703 126.355 449.074 125.84 450.762 125.84Z" fill="white"/>
</svg>
